<svg xmlns="http://www.w3.org/2000/svg" xmlns:xlink="http://www.w3.org/1999/xlink" width="9.262" height="9.5"><defs><clipPath id="clip-path"><rect id="Rectangle_2459" data-name="Rectangle 2459" width="9.262" height="9.5" transform="translate(0 0)" fill="none"/></clipPath></defs><g id="arrow" transform="translate(0 0)"><g id="Group_7087" data-name="Group 7087" clip-path="url(#clip-path)"><path id="Path_20445" data-name="Path 20445" d="M4.512,9.5a.75.75,0,0,1-.53-1.28L6.7,5.5H.75A.751.751,0,0,1,.75,4H6.7L3.982,1.281A.75.75,0,0,1,5.042.22l4,4,.005.005h0v0h0l0,0a.748.748,0,0,1,.151.232.732.732,0,0,1,.057.273v0h0v.023a.741.741,0,0,1-.056.271.75.75,0,0,1-.16.242l0,0h0l-4,4a.744.744,0,0,1-.53.22" fill="#fde0df"/></g></g></svg>